 http://img834.imageshack.us/img834/219/krews2010.jpg

Country.......: USA
Genre.........: Drama
Date release..: 03.2010 [World]
Director......: Hilbert Hakim
Writers.......: Joshua Leibner, Joshua Leibner
Duration......: 106 min.
More..........: http://www.imdb.com/title/tt1078583
Trailer.......: http://www.imdb.com/video/screenplay/vi2087886105
Trailer.......:

Pilot :
A botched car jacking forces two white-collar criminals to take refuge in the home of the thugs that accosted them. Over the course of one explosive, unpredictable night, worlds collide, fortunes shift, lives are cast aside and the most unsuspecting of heroes walks away with a multimillion dollar score.

Cats :
Brian Geraghty   	 ...  	Henry McFarlin
Jonathan Cake 	... 	Peter Spanbauer
Faune A. Chambers 	... 	Tamara (as Faune Chambers)
Sam Jones III 	... 	Wishbone
Charles Malik Whitfield 	... 	Rebob
Ty Hodges 	... 	Slate
Charles Robinson 	... 	Mr. Davis
Marcuis Harris 	... 	Python
Khleo Thomas 	... 	Tom Tom
China Anderson 	... 	Donaleen
Christian Duguay 	... 	Cop
Pedro Miguel Arce 	... 	Guatemalan #2
Enrique Almeida 	... 	Guatemalan #1
Paul D. Roberts 	...  Reporter Scott Kamran
Kalena Knox 	... 	Neighbor Woman 

Data Technical :
!!! SAMPLE !!!
Audio.....: English
Subtitles.: English .sub
Format                           : AVI
Format/Info                      : Audio Video Interleave
File size                        : 1.44 GiB
Duration                         : 1h 45mn
Overall bit rate                 : 1 948 Kbps
Video
ID                               : 0
Format                           : MPEG-4 Visual
Format profile                   : Advanced Simple@L5
Format settings, BVOP            : Yes
Format settings, QPel            : Yes
Format settings, GMC             : No warppoints
Format settings, Matrix          : Custom
Codec ID                         : XVID
Codec ID/Hint                    : XviD
Duration                         : 1h 45mn
Bit rate                         : 1 492 Kbps
Width                            : 720 pixels
Height                           : 304 pixels
Display aspect ratio             : 2.35:1
Frame rate                       : 23.976 fps
Color space                      : YUV
Chroma subsampling               : 4:2:0
Bit depth                        : 8 bits
Scan type                        : Progressive
Bits/(Pixel*Frame)               : 0.284
Stream size                      : 1.10 GiB (77%)
Writing library                  : XviD 1.2.1 (UTC 2008-12-04)
Audio
ID                               : 1
Format                           : AC-3
Format/Info                      : Audio Coding 3
Mode extension                   : CM (complete main)
Codec ID                         : 2000
Duration                         : 1h 45mn
Bit rate mode                    : Constant
Bit rate                         : 448 Kbps
Channel(s)                       : 6 channels
Channel positions                : Front: L C R, Side: L R, LFE
Sampling rate                    : 48.0 KHz
Bit depth                        : 16 bits
Stream size                      : 340 MiB (23%)
Alignment                        : Aligned on interleaves
Interleave, duration             : 64 ms (1.53 video frames)
Interleave, preload duration     : 192 ms
Title                            : VTS_01_1 T80 3_2ch 448Kbps DELAY 0ms english

Screen : 
http://img823.imageshack.us/img823/2513/krews2010s1.jpg 
http://img51.imageshack.us/img51/7695/krews2010s2.jpg 
http://img829.imageshack.us/img829/7910/krews2010s3.jpg 
http://img844.imageshack.us/img844/2365/krews2010s4.jpg 
http://img560.imageshack.us/img560/5082/krews2010s5.jpg